<?xml version="1.0" standalone="no"?>
<!DOCTYPE svg PUBLIC "-//W3C//DTD SVG 20010904//EN"
 "http://www.w3.org/TR/2001/REC-SVG-20010904/DTD/svg10.dtd">
<svg version="1.0" xmlns="http://www.w3.org/2000/svg"
 width="512.000000pt" height="512.000000pt" viewBox="0 0 512.000000 512.000000"
 preserveAspectRatio="xMidYMid meet">
<g transform="translate(0.000000,512.000000) scale(0.100000,-0.100000)"
fill="#000000" stroke="none">
<path d="M2399 5116 c-2 -2 -35 -6 -74 -10 -471 -39 -901 -270 -1126 -602
-224 -331 -288 -731 -196 -1224 34 -182 141 -471 255 -690 95 -184 285 -474
387 -593 6 -7 42 -50 81 -97 89 -106 101 -119 174 -197 l60 -63 1 -393 c1
-215 3 -408 5 -427 7 -59 25 -101 61 -141 46 -51 100 -66 231 -64 77 0 99 -2
90 -11 -7 -6 -78 -61 -158 -122 -177 -135 -188 -145 -211 -196 -41 -93 -5
-201 86 -261 29 -19 51 -20 493 -22 444 -3 465 -2 502 17 139 71 143 293 7
367 -24 14 -65 19 -166 23 l-135 5 166 127 c92 70 175 140 186 155 40 58 42
81 42 519 l-1 423 47 48 c64 67 209 234 274 318 30 39 59 75 63 80 35 43 159
228 216 323 203 341 313 629 377 986 27 150 26 445 -1 596 -95 525 -470 921
-1005 1061 -73 19 -174 39 -223 45 -29 3 -59 8 -67 11 -16 6 -435 14 -441 9z
m181 -741 c15 -8 41 -27 56 -43 321 -324 584 -601 602 -634 73 -136 -51 -315
-204 -294 -57 7 -69 16 -177 123 -49 49 -86 79 -83 68 3 -11 8 -45 11 -75 3
-30 8 -62 10 -70 3 -13 8 -49 20 -150 17 -141 17 -151 1 -193 -41 -109 -166
-161 -268 -113 -23 11 -143 127 -305 294 -147 151 -281 287 -297 301 -87 80
-106 192 -46 279 36 54 91 90 148 98 63 9 119 -24 216 -122 51 -53 84 -81 82
-69 -2 11 -7 45 -11 75 -3 30 -8 66 -10 80 -39 244 -41 290 -17 341 32 67 58
93 119 115 43 15 112 10 153 -11z"/>
</g>
</svg>
