<?xml version="1.0" encoding="UTF-8" standalone="no"?>
<svg xmlns:dc="http://purl.org/dc/elements/1.1/" xmlns:cc="http://creativecommons.org/ns#" xmlns:rdf="http://www.w3.org/1999/02/22-rdf-syntax-ns#" xmlns:svg="http://www.w3.org/2000/svg" xmlns="http://www.w3.org/2000/svg" id="svg3409" version="1.1" viewBox="0 0 256 256" height="5em" width="5em">
  <g transform="matrix(6.9981735,0,0,6.9981735,-2.325993,-16.364041)" id="bridge" fill="#101010">
    <path d="m 22,8 c -0.553,0 -1,-0.447 -1,-1 0,-0.553 0.447,-1 1,-1 0.553,0 1,0.447 1,1 0,0.553 -0.447,1 -1,1 z m -6,4 c 2.209,0 4,1.791 4,4 0,2.209 -1.791,4 -4,4 -2.209,0 -4,-1.791 -4,-4 0,-2.209 1.791,-4 4,-4 z m 0,10 c -3.309,0 -6,-2.691 -6,-6 0,-3.309 2.691,-6 6,-6 3.309,0 6,2.691 6,6 0,3.309 -2.691,6 -6,6 M 9,7 C 9,6.447 9.447,6 10,6 10.553,6 11,6.447 11,7 11,7.553 10.553,8 10,8 9.447,8 9,7.553 9,7 m 7,-1 c 0.553,0 1,0.447 1,1 0,0.553 -0.447,1 -1,1 C 15.447,8 15,7.553 15,7 15,6.447 15.447,6 16,6 M 24,4 H 8 C 5.8,4 4,5.8 4,8 v 16 c 0,2.2 1.8,4 4,4 h 16 c 2.2,0 4,-1.8 4,-4 V 8 C 28,5.8 26.2,4 24,4"/>
  </g>
  <path id="hand" fill="#ffc229" d="m 165.41822,210.91627 c -4.40472,-16.3021 -18.79836,-14.43415 -40.24623,-26.87438 -8.36009,-4.84911 -25.901714,3.85725 -27.57236,-8.70685 -1.896946,-14.26634 13.33766,-18.66175 30.45245,-16.15158 L 97.930308,102.7264 C 90.782339,89.329235 113.5105,78.052588 120.38153,90.665116 l 14.99947,27.533054 40.3308,-9.38651 c 13.46343,-2.34831 16.32121,7.9099 18.56592,12.08822 l 11.10679,20.67457 c 7.24365,13.48359 -5.61881,20.25012 2.06327,36.77218 l 14.6163,25.65755 -47.22384,23.28824 z"/>
  <path id="shirt" fill="#ffc229" d="m 173.08628,230.42011 -12.55182,-22.39576 c -2.24199,-4.0003 -1.25715,-6.60943 2.21236,-8.47332 l 43.44877,-23.34157 c 3.15193,-1.69328 5.7863,-0.8521 7.44875,2.24242 l 12.58187,23.42037 z"/>
  <path id="jacket" fill="#ffc229" d="m 173.22807,242.20762 -12.55182,-22.39576 c -2.24198,-4.0003 -1.25715,-6.60936 2.21238,-8.47325 l 53.30844,-28.63841 c 3.15192,-1.69328 5.7863,-0.8521 7.44874,2.24242 l 12.58188,23.4203 z"/>
</svg>
